<?xml version="1.0" encoding="UTF-8" standalone="no"?>
<svg
   xmlns:dc="http://purl.org/dc/elements/1.1/"
   xmlns:cc="http://creativecommons.org/ns#"
   xmlns:rdf="http://www.w3.org/1999/02/22-rdf-syntax-ns#"
   xmlns:svg="http://www.w3.org/2000/svg"
   xmlns="http://www.w3.org/2000/svg"
   xmlns:sodipodi="http://sodipodi.sourceforge.net/DTD/sodipodi-0.dtd"
   xmlns:inkscape="http://www.inkscape.org/namespaces/inkscape"
   id="svg8"
   version="1.1"
   viewBox="0 0 105 31"
   height="31mm"
   width="105mm"
   sodipodi:docname="alt_logo_name.svg"
   inkscape:version="0.92.5 (2060ec1f9f, 2020-04-08)">
  <sodipodi:namedview
     pagecolor="#ffffff"
     bordercolor="#666666"
     borderopacity="1"
     objecttolerance="10"
     gridtolerance="10"
     guidetolerance="10"
     inkscape:pageopacity="0"
     inkscape:pageshadow="2"
     inkscape:window-width="1920"
     inkscape:window-height="1009"
     id="namedview28"
     showgrid="false"
     inkscape:zoom="0.70051587"
     inkscape:cx="198.4252"
     inkscape:cy="139.84252"
     inkscape:window-x="0"
     inkscape:window-y="0"
     inkscape:window-maximized="1"
     inkscape:current-layer="svg8" />
  <defs
     id="defs2" />
  <metadata
     id="metadata5">
    <rdf:RDF>
      <cc:Work
         rdf:about="">
        <dc:format>image/svg+xml</dc:format>
        <dc:type
           rdf:resource="http://purl.org/dc/dcmitype/StillImage" />
        <dc:title></dc:title>
      </cc:Work>
    </rdf:RDF>
  </metadata>
  <g
     transform="translate(0.75539569,-244.47122)"
     id="layer1">
    <text
       id="text898"
       y="267.46701"
       x="3.0362761"
       style="font-style:normal;font-weight:normal;font-size:24.06687737px;line-height:1.25;font-family:sans-serif;letter-spacing:0px;word-spacing:0px;fill:#000000;fill-opacity:1;stroke:none;stroke-width:0.26458329"
       xml:space="preserve"><tspan
         style="font-style:normal;font-variant:normal;font-weight:normal;font-stretch:normal;font-size:24.06701279px;font-family:Now;-inkscape-font-specification:'Now, Normal';font-variant-ligatures:normal;font-variant-caps:normal;font-variant-numeric:normal;font-feature-settings:normal;text-align:start;writing-mode:lr-tb;text-anchor:start;stroke-width:0.26458329"
         y="267.46701"
         x="3.0362761"
         id="tspan896">syntra  e</tspan></text>
    <g
       style="stroke-width:1.08863056"
       transform="matrix(0.9185853,0,0,0.9185853,5.0392053,20.474495)"
       id="g1006">
      <rect
         style="fill:#000000;fill-opacity:1;stroke-width:0.28803334"
         id="rect900"
         width="2"
         height="20"
         x="86.158058"
         y="248.2012" />
      <path
         style="fill:#000000;stroke-width:1.08863056"
         d="m 81.737594,267.70578 c -9.77e-4,-0.16679 0.05538,-1.38466 0.12516,-2.70639 0.06978,-1.32173 0.104076,-2.42443 0.07622,-2.45045 -0.02786,-0.026 -1.428062,0.0167 -3.111569,0.095 -1.683507,0.0783 -3.075188,0.13099 -3.092629,0.11714 -0.01743,-0.0138 -0.02512,-0.27537 -0.01707,-0.58116 0.05535,-2.10074 1.628233,-4.10219 3.800728,-4.83633 3.248462,-1.09773 6.764652,0.57609 7.718149,3.67408 0.244809,0.7954 0.246752,2.14554 0.0042,2.93222 -0.678833,2.20188 -2.63391,3.74929 -5.06951,4.01244 l -0.431995,0.0467 -0.0017,-0.30324 z"
         id="path21"
         inkscape:connector-curvature="0" />
      <path
         style="fill:#613dc1;fill-opacity:1;stroke-width:1.08863056"
         d="m 77.744339,271.42936 c 0.07868,-1.22779 0.272927,-5.40291 0.252344,-5.42388 -0.01259,-0.0128 -1.421312,0.0382 -3.130476,0.11337 -1.709166,0.0751 -3.114145,0.13027 -3.12218,0.12242 -0.008,-0.008 0.899449,-0.8838 2.016624,-1.94657 l 2.031231,-1.9323 0.682664,-0.0303 c 0.375464,-0.0167 1.799544,-0.081 3.164625,-0.1429 1.36508,-0.0619 2.498094,-0.0975 2.517809,-0.0791 0.01971,0.0184 -0.02185,1.14177 -0.09237,2.49635 -0.07052,1.35459 -0.136665,2.67619 -0.146987,2.9369 l -0.01877,0.47402 -2.093135,1.95374 -2.093134,1.95375 z"
         id="path50"
         inkscape:connector-curvature="0" />
    </g>
  </g>
</svg>
