<?xml version="1.0" encoding="UTF-8" standalone="no"?>
<svg
   xmlns:dc="http://purl.org/dc/elements/1.1/"
   xmlns:cc="http://creativecommons.org/ns#"
   xmlns:rdf="http://www.w3.org/1999/02/22-rdf-syntax-ns#"
   xmlns:svg="http://www.w3.org/2000/svg"
   xmlns="http://www.w3.org/2000/svg"
   xmlns:sodipodi="http://sodipodi.sourceforge.net/DTD/sodipodi-0.dtd"
   xmlns:inkscape="http://www.inkscape.org/namespaces/inkscape"
   id="svg8"
   version="1.1"
   viewBox="0 0 105 31"
   height="31mm"
   width="105mm"
   sodipodi:docname="alt_logo_name.svg"
   inkscape:version="0.92.5 (2060ec1f9f, 2020-04-08)">
  <sodipodi:namedview
     pagecolor="#ffffff"
     bordercolor="#666666"
     borderopacity="1"
     objecttolerance="10"
     gridtolerance="10"
     guidetolerance="10"
     inkscape:pageopacity="0"
     inkscape:pageshadow="2"
     inkscape:window-width="1920"
     inkscape:window-height="1009"
     id="namedview28"
     showgrid="false"
     inkscape:zoom="1.4010317"
     inkscape:cx="250.59302"
     inkscape:cy="101.28721"
     inkscape:window-x="0"
     inkscape:window-y="0"
     inkscape:window-maximized="1"
     inkscape:current-layer="g33" />
  <defs
     id="defs2" />
  <metadata
     id="metadata5">
    <rdf:RDF>
      <cc:Work
         rdf:about="">
        <dc:format>image/svg+xml</dc:format>
        <dc:type
           rdf:resource="http://purl.org/dc/dcmitype/StillImage" />
        <dc:title></dc:title>
      </cc:Work>
    </rdf:RDF>
  </metadata>
  <g
     transform="translate(0.75539569,-244.47122)"
     id="layer1">
    <g
       id="g33">
      <text
         xml:space="preserve"
         style="font-style:normal;font-weight:normal;font-size:24.06687737px;line-height:1.25;font-family:sans-serif;letter-spacing:0px;word-spacing:0px;fill:#000000;fill-opacity:1;stroke:none;stroke-width:0.26458329"
         x="3.0362761"
         y="267.46701"
         id="text898"><tspan
           id="tspan896"
           x="3.0362761"
           y="267.46701"
           style="font-style:normal;font-variant:normal;font-weight:normal;font-stretch:normal;font-size:24.06701279px;font-family:Now;-inkscape-font-specification:'Now, Normal';font-variant-ligatures:normal;font-variant-caps:normal;font-variant-numeric:normal;font-feature-settings:normal;text-align:start;writing-mode:lr-tb;text-anchor:start;stroke-width:0.26458329">syntrade</tspan></text>
      <g
         style="stroke-width:0.89049226"
         transform="matrix(1.1272465,0,0,1.1187184,-26.023545,-29.985893)"
         id="g26">
        <path
           inkscape:connector-curvature="0"
           id="path21"
           d="m 80.122158,266.38509 c -8.98e-4,-0.15321 0.05087,-1.27193 0.11497,-2.48605 0.0641,-1.21412 0.0956,-2.22705 0.07001,-2.25095 -0.02559,-0.0239 -1.311796,0.0153 -2.858241,0.0873 -1.546445,0.0719 -2.824823,0.12032 -2.840844,0.1076 -0.01601,-0.0127 -0.02308,-0.25295 -0.01568,-0.53384 0.05084,-1.92971 1.495671,-3.76822 3.491293,-4.44259 2.983989,-1.00835 6.21391,0.52919 7.089778,3.37496 0.224878,0.73064 0.226663,1.97086 0.0039,2.69349 -0.623566,2.02262 -2.419471,3.44405 -4.656777,3.68577 l -0.396824,0.0429 -0.0016,-0.27855 z"
           style="fill:#000000;stroke-width:0.89049226" />
        <path
           inkscape:connector-curvature="0"
           id="path50"
           d="m 76.454012,269.80552 c 0.07227,-1.12783 0.250707,-4.96304 0.2318,-4.9823 -0.01157,-0.0118 -1.305597,0.0351 -2.875609,0.10414 -1.570015,0.069 -2.860608,0.11966 -2.867989,0.11245 -0.0073,-0.007 0.82622,-0.81184 1.852441,-1.78809 l 1.865859,-1.77498 0.627085,-0.0278 c 0.344896,-0.0153 1.653035,-0.0744 2.906978,-0.13127 1.253943,-0.0569 2.294713,-0.0896 2.312822,-0.0727 0.01811,0.0169 -0.02007,1.04881 -0.08485,2.29311 -0.06478,1.24431 -0.125539,2.45831 -0.13502,2.69779 l -0.01724,0.43543 -1.922723,1.79468 -1.922722,1.79468 z"
           style="fill:#613dc1;fill-opacity:1;stroke-width:0.89049226" />
      </g>
    </g>
  </g>
</svg>
