<svg width="49" height="49" viewBox="0 0 49 49" fill="none" xmlns="http://www.w3.org/2000/svg">
<g clip-path="url(#clip0_1232_908)">
<path d="M33.7059 34.3918C34.006 33.3567 33.8896 32.4094 33.3894 31.705C32.93 31.0598 32.1542 30.6862 31.2212 30.6433L13.5403 30.4126C13.4867 30.4136 13.4337 30.401 13.3862 30.376C13.3387 30.351 13.2984 30.3145 13.2688 30.2697C13.2401 30.2224 13.2217 30.1696 13.2147 30.1148C13.2076 30.0599 13.2122 30.0042 13.228 29.9512C13.2599 29.8644 13.3158 29.7884 13.3892 29.7321C13.4625 29.6757 13.5503 29.6413 13.6424 29.6327L31.4784 29.402C33.5915 29.302 35.8884 27.5931 36.6928 25.4963L37.7116 22.838C37.7575 22.7297 37.7675 22.6095 37.7402 22.495C37.1859 20.0238 35.8391 17.8015 33.9049 16.1665C31.9706 14.5316 29.5551 13.5737 27.026 13.4386C24.497 13.3036 21.9932 13.9989 19.8959 15.4186C17.7986 16.8383 16.2227 18.9045 15.4085 21.3027C14.3568 20.5209 13.0519 20.1585 11.7478 20.2859C10.9997 20.3619 10.2768 20.5983 9.62846 20.9791C8.98008 21.3598 8.42144 21.8759 7.99064 22.4921C7.55985 23.1084 7.26703 23.8103 7.13216 24.55C6.99729 25.2897 7.02354 26.0498 7.20913 26.7785C5.2777 26.8332 3.44382 27.6393 2.09752 29.0253C0.751212 30.4112 -0.00130626 32.2677 1.70219e-06 34.1999C1.70219e-06 34.5572 0.028585 34.9165 0.07146 35.2759C0.0840514 35.3592 0.125877 35.4354 0.189462 35.4907C0.253046 35.5461 0.334245 35.577 0.418543 35.578H33.0444C33.1382 35.5754 33.2287 35.5434 33.3034 35.4867C33.3781 35.4299 33.4332 35.3512 33.4609 35.2616L33.7059 34.3898V34.3918ZM39.3348 23.032C39.1775 23.032 39.006 23.032 38.8468 23.0545C38.7325 23.0545 38.6324 23.1402 38.5875 23.2545L37.8995 25.6515C37.5973 26.6866 37.7116 27.6339 38.2139 28.3403C38.6732 28.9855 39.4491 29.3571 40.3821 29.402L44.147 29.6327C44.2613 29.6327 44.3613 29.6858 44.4185 29.7756C44.4465 29.8232 44.4647 29.8758 44.4721 29.9305C44.4794 29.9852 44.4758 30.0408 44.4614 30.0941C44.4293 30.1812 44.373 30.2574 44.2993 30.3138C44.2256 30.3701 44.1373 30.4044 44.0449 30.4126L40.1249 30.6413C37.9975 30.7413 35.7169 32.4522 34.9125 34.549L34.6246 35.28C34.5675 35.427 34.6675 35.5699 34.8268 35.5699H48.2956C48.3737 35.5711 48.45 35.5466 48.5128 35.5001C48.5755 35.4536 48.6212 35.3877 48.6427 35.3126C48.8773 34.4612 48.9975 33.5824 49 32.6993C48.993 30.1394 47.972 27.6865 46.1605 25.8777C44.349 24.0689 41.8947 23.0516 39.3348 23.0483" fill="black"/>
</g>
<defs>
<clipPath id="clip0_1232_908">
<rect width="49" height="49" fill="white"/>
</clipPath>
</defs>
</svg>
