<svg width="18" height="18" viewBox="0 0 18 18" fill="none" xmlns="http://www.w3.org/2000/svg">
<circle cx="9" cy="9" r="9" fill="#D9D9D9" fill-opacity="0.74"/>
<path d="M1.34836 14.8715H3.84262V10.9246C3.23299 10.7678 2.78012 10.2139 2.78012 9.55553C2.78012 8.89713 3.23299 8.34324 3.84262 8.18648V5.60512C3.23299 5.44836 2.78012 4.89447 2.78012 4.23607C2.78012 3.57766 3.23299 3.02377 3.84262 2.86701V0.351844C3.84262 0.160246 3.99939 0.00348361 4.19098 0.00348361C4.38258 0.00348361 4.53934 0.160246 4.53934 0.351844V2.86701C5.14898 3.02377 5.60184 3.57766 5.60184 4.23607C5.60184 4.89447 5.14898 5.44836 4.53934 5.60512V8.18648C5.14898 8.34324 5.60184 8.89713 5.60184 9.55553C5.60184 10.2139 5.14898 10.7678 4.53934 10.9246V14.8715H7.42377V12.7186C6.78975 12.5828 6.3125 12.015 6.3125 11.3391C6.3125 10.6807 6.76537 10.1268 7.375 9.97008V8.78217C6.78975 8.60799 6.36475 8.06803 6.36475 7.42705C6.36475 6.76865 6.81762 6.21475 7.42725 6.05799V0.351844C7.42725 0.160246 7.58402 0.00348361 7.77561 0.00348361C7.96721 0.00348361 8.12398 0.160246 8.12398 0.351844V6.05799C8.73361 6.21475 9.18648 6.76865 9.18648 7.42705C9.18648 8.10287 8.70922 8.6707 8.0752 8.80656V9.9666C8.68484 10.1234 9.1377 10.6773 9.1377 11.3357C9.1377 11.9766 8.70922 12.5166 8.12746 12.6908V14.8715H10.9875V10.935C10.3535 10.7992 9.87623 10.2314 9.87623 9.55553C9.87623 8.89713 10.3291 8.34324 10.9387 8.18648V7.37131C10.3535 7.19713 9.92848 6.65717 9.92848 6.01619C9.92848 5.3752 10.357 4.83525 10.9387 4.66107V3.80758C10.3535 3.6334 9.92848 3.09344 9.92848 2.45246C9.92848 1.79406 10.3814 1.24016 10.991 1.0834V0.351844C10.991 0.160246 11.1477 0.00348361 11.3393 0.00348361C11.5309 0.00348361 11.6877 0.160246 11.6877 0.351844V1.0834C12.2973 1.24016 12.7502 1.79406 12.7502 2.45246C12.7502 3.12828 12.273 3.69611 11.6389 3.83197V4.63668C12.273 4.77254 12.7502 5.34037 12.7502 6.01619C12.7502 6.69201 12.273 7.25984 11.6389 7.3957V8.18299C12.2486 8.33975 12.7014 8.89365 12.7014 9.55205C12.7014 10.193 12.273 10.733 11.6912 10.9072V14.868H14.5268V13.3945C13.9172 13.2377 13.4643 12.6838 13.4643 12.0254C13.4643 11.367 13.9172 10.8131 14.5268 10.6564V7.38176C13.9172 7.225 13.4643 6.67111 13.4643 6.0127C13.4643 5.37172 13.8928 4.83176 14.4746 4.65758V3.81803C13.865 3.66127 13.4121 3.10738 13.4121 2.44898C13.4121 1.78709 13.966 1.2332 14.5234 1.07992V0.348361C14.5234 0.156762 14.6801 0 14.8717 0C15.0633 0 15.2201 0.156762 15.2201 0.348361V1.09385C15.8053 1.26803 16.2303 1.80799 16.2303 2.44898C16.2303 3.10738 15.7775 3.66127 15.1678 3.81803V4.6332C15.8018 4.76906 16.2791 5.33689 16.2791 6.0127C16.2791 6.67111 15.8262 7.225 15.2166 7.38176V10.6564C15.8262 10.8131 16.2791 11.367 16.2791 12.0254C16.2791 12.6838 15.8262 13.2377 15.2166 13.3945V14.868H17.6516C17.8432 14.868 18 15.0248 18 15.2164V16.6516C18 16.8432 17.8432 17 17.6516 17H1.34836C1.15676 17 1 16.8432 1 16.6516V15.2164C1 15.0283 1.15676 14.8715 1.34836 14.8715ZM4.90164 4.23607C4.90164 3.84242 4.58115 3.52193 4.1875 3.52193C3.79385 3.52193 3.47336 3.84242 3.47336 4.23607C3.47336 4.62971 3.79385 4.9502 4.1875 4.9502C4.58463 4.9502 4.90164 4.62971 4.90164 4.23607ZM4.90164 9.55553C4.90164 9.16188 4.58115 8.84139 4.1875 8.84139C3.79385 8.84139 3.47336 9.16188 3.47336 9.55553C3.47336 9.94918 3.79385 10.2697 4.1875 10.2697C4.58463 10.2697 4.90164 9.94918 4.90164 9.55553ZM8.48627 7.42705C8.48627 7.0334 8.16578 6.71291 7.77213 6.71291C7.37848 6.71291 7.05799 7.0334 7.05799 7.42705C7.05799 7.8207 7.37848 8.14119 7.77213 8.14119C8.16578 8.14119 8.48627 7.8207 8.48627 7.42705ZM8.43402 11.3357C8.43402 10.942 8.11352 10.6215 7.71988 10.6215C7.32623 10.6215 7.00574 10.942 7.00574 11.3357C7.00574 11.7293 7.32623 12.0498 7.71988 12.0498C8.11352 12.0498 8.43402 11.7293 8.43402 11.3357ZM12.043 2.45246C12.043 2.05881 11.7225 1.73832 11.3289 1.73832C10.9352 1.73832 10.6148 2.05881 10.6148 2.45246C10.6148 2.84611 10.9352 3.1666 11.3289 3.1666C11.7225 3.1666 12.043 2.84611 12.043 2.45246ZM12.043 6.01619C12.043 5.62254 11.7225 5.30205 11.3289 5.30205C10.9352 5.30205 10.6148 5.62254 10.6148 6.01619C10.6148 6.40984 10.9352 6.73033 11.3289 6.73033C11.7225 6.73033 12.043 6.40984 12.043 6.01619ZM11.9943 9.55553C11.9943 9.16188 11.6738 8.84139 11.2801 8.84139C10.8865 8.84139 10.566 9.16188 10.566 9.55553C10.566 9.94918 10.8865 10.2697 11.2801 10.2697C11.6738 10.2697 11.9943 9.94918 11.9943 9.55553ZM15.5232 2.45246C15.5232 2.05881 15.2027 1.73832 14.809 1.73832C14.5408 1.73832 14.0949 2.07275 14.0949 2.45246C14.0949 2.84611 14.4154 3.1666 14.809 3.1666C15.2027 3.1666 15.5232 2.84611 15.5232 2.45246ZM15.5754 6.01619C15.5754 5.62254 15.2549 5.30205 14.8613 5.30205C14.4676 5.30205 14.1471 5.62254 14.1471 6.01619C14.1471 6.40984 14.4676 6.73033 14.8613 6.73033C15.2549 6.73033 15.5754 6.40984 15.5754 6.01619ZM15.5754 12.0289C15.5754 11.6352 15.2549 11.3148 14.8613 11.3148C14.4676 11.3148 14.1471 11.6352 14.1471 12.0289C14.1471 12.4225 14.4676 12.743 14.8613 12.743C15.2549 12.743 15.5754 12.4225 15.5754 12.0289ZM1.69672 16.3068H17.3033V15.5682H1.69672V16.3068Z" fill="black"/>
</svg>
