<svg width="25" height="21" viewBox="0 0 25 21" fill="none" xmlns="http://www.w3.org/2000/svg">
<circle cx="12.5" cy="10.5" r="10.5" fill="#D9D9D9"/>
<path fill-rule="evenodd" clip-rule="evenodd" d="M1.625 4.25C1.625 3.81902 1.7962 3.4057 2.10095 3.10095C2.4057 2.7962 2.81902 2.625 3.25 2.625H4.46875C4.89973 2.625 5.31305 2.7962 5.6178 3.10095C5.92255 3.4057 6.09375 3.81902 6.09375 4.25V5.46875C6.09375 5.89973 5.92255 6.31305 5.6178 6.6178C5.31305 6.92255 4.89973 7.09375 4.46875 7.09375H3.25C2.81902 7.09375 2.4057 6.92255 2.10095 6.6178C1.7962 6.31305 1.625 5.89973 1.625 5.46875V4.25ZM6.90625 4.25C6.90625 3.81902 7.07745 3.4057 7.3822 3.10095C7.68695 2.7962 8.10027 2.625 8.53125 2.625H9.75C10.181 2.625 10.5943 2.7962 10.899 3.10095C11.2038 3.4057 11.375 3.81902 11.375 4.25V5.46875C11.375 5.89973 11.2038 6.31305 10.899 6.6178C10.5943 6.92255 10.181 7.09375 9.75 7.09375H8.53125C8.10027 7.09375 7.68695 6.92255 7.3822 6.6178C7.07745 6.31305 6.90625 5.89973 6.90625 5.46875V4.25ZM1.625 9.53125C1.625 9.10027 1.7962 8.68695 2.10095 8.3822C2.4057 8.07745 2.81902 7.90625 3.25 7.90625H4.46875C4.89973 7.90625 5.31305 8.07745 5.6178 8.3822C5.92255 8.68695 6.09375 9.10027 6.09375 9.53125V10.75C6.09375 11.181 5.92255 11.5943 5.6178 11.899C5.31305 12.2038 4.89973 12.375 4.46875 12.375H3.25C2.81902 12.375 2.4057 12.2038 2.10095 11.899C1.7962 11.5943 1.625 11.181 1.625 10.75V9.53125ZM6.90625 9.53125C6.90625 9.10027 7.07745 8.68695 7.3822 8.3822C7.68695 8.07745 8.10027 7.90625 8.53125 7.90625H9.75C10.181 7.90625 10.5943 8.07745 10.899 8.3822C11.2038 8.68695 11.375 9.10027 11.375 9.53125V10.75C11.375 11.181 11.2038 11.5943 10.899 11.899C10.5943 12.2038 10.181 12.375 9.75 12.375H8.53125C8.10027 12.375 7.68695 12.2038 7.3822 11.899C7.07745 11.5943 6.90625 11.181 6.90625 10.75V9.53125Z" fill="black"/>
<path d="M15.25 8.625C14.819 8.625 14.4057 8.7962 14.101 9.10095C13.7962 9.4057 13.625 9.81902 13.625 10.25V11.4688C13.625 11.8997 13.7962 12.3131 14.101 12.6178C14.4057 12.9225 14.819 13.0938 15.25 13.0938H16.4688C16.8997 13.0938 17.3131 12.9225 17.6178 12.6178C17.9225 12.3131 18.0938 11.8997 18.0938 11.4688V10.25C18.0938 9.81902 17.9225 9.4057 17.6178 9.10095C17.3131 8.7962 16.8997 8.625 16.4688 8.625H15.25ZM20.5313 8.625C20.1003 8.625 19.6869 8.7962 19.3822 9.10095C19.0775 9.4057 18.9063 9.81902 18.9063 10.25V11.4688C18.9063 11.8997 19.0775 12.3131 19.3822 12.6178C19.6869 12.9225 20.1003 13.0938 20.5313 13.0938H21.75C22.181 13.0938 22.5943 12.9225 22.899 12.6178C23.2038 12.3131 23.375 11.8997 23.375 11.4688V10.25C23.375 9.81902 23.2038 9.4057 22.899 9.10095C22.5943 8.7962 22.181 8.625 21.75 8.625H20.5313ZM15.25 13.9063C14.819 13.9063 14.4057 14.0775 14.101 14.3822C13.7962 14.6869 13.625 15.1003 13.625 15.5313V16.75C13.625 17.181 13.7962 17.5943 14.101 17.899C14.4057 18.2038 14.819 18.375 15.25 18.375H16.4688C16.8997 18.375 17.3131 18.2038 17.6178 17.899C17.9225 17.5943 18.0938 17.181 18.0938 16.75V15.5313C18.0938 15.1003 17.9225 14.6869 17.6178 14.3822C17.3131 14.0775 16.8997 13.9063 16.4688 13.9063H15.25ZM21.5469 14.3125C21.5469 14.2048 21.5041 14.1014 21.4279 14.0252C21.3517 13.9491 21.2484 13.9063 21.1406 13.9063C21.0329 13.9063 20.9295 13.9491 20.8534 14.0252C20.7772 14.1014 20.7344 14.2048 20.7344 14.3125V15.7344H19.3125C19.2048 15.7344 19.1014 15.7772 19.0252 15.8534C18.9491 15.9295 18.9063 16.0329 18.9063 16.1406C18.9063 16.2484 18.9491 16.3517 19.0252 16.4279C19.1014 16.5041 19.2048 16.5469 19.3125 16.5469H20.7344V17.9688C20.7344 18.0765 20.7772 18.1798 20.8534 18.256C20.9295 18.3322 21.0329 18.375 21.1406 18.375C21.2484 18.375 21.3517 18.3322 21.4279 18.256C21.5041 18.1798 21.5469 18.0765 21.5469 17.9688V16.5469H22.9688C23.0765 16.5469 23.1798 16.5041 23.256 16.4279C23.3322 16.3517 23.375 16.2484 23.375 16.1406C23.375 16.0329 23.3322 15.9295 23.256 15.8534C23.1798 15.7772 23.0765 15.7344 22.9688 15.7344H21.5469V14.3125Z" fill="black"/>
</svg>
