<svg width="56" height="56" viewBox="0 0 56 56" fill="none" xmlns="http://www.w3.org/2000/svg">
<path d="M27.6465 43.8201H29.0232C30.0032 43.8201 30.926 43.3627 31.5187 42.5822L40.2511 31.0941L48.9837 42.5822C49.5763 43.3616 50.4991 43.8201 51.4791 43.8201H52.8558L41.7153 29.1667L52.3565 15.1667H50.9798C49.9998 15.1667 49.077 15.6241 48.4843 16.4046L40.25 27.2382L32.0145 16.4034C31.4218 15.6241 30.499 15.1667 29.519 15.1667H28.1423L38.7835 29.1667L27.6465 43.8201Z" fill="#212121"/>
<path d="M28 30.3335V26.8334C28 19.0459 21.0642 12.8789 13.0328 14.1728C6.78068 15.1796 2.33334 20.8333 2.33334 27.1648V28.0001V30.3335V30.4991C2.33334 38.1443 7.90651 44.2494 15.0127 44.3334C20.9533 44.4034 25.9665 40.4321 27.5042 35.0013H26.3048C25.5815 35.0013 24.9258 35.4154 24.612 36.0664C22.5832 40.2606 17.8582 42.9054 12.6793 41.7155C7.90534 40.6176 4.66668 36.1446 4.66668 31.247V30.3335H28ZM4.66668 27.6618C4.66668 22.1691 7.93801 17.6786 12.7447 16.6041C19.5977 15.0735 25.6667 20.2441 25.6667 26.8334V28.0001H4.66668V27.6618Z" fill="#212121"/>
</svg>
