<svg width="41" height="46" viewBox="0 0 41 46" fill="none" xmlns="http://www.w3.org/2000/svg">
<g clip-path="url(#clip0_1324_625)">
<path d="M40.4399 34.5C39.3106 36.4617 36.793 37.1315 34.8284 36.0038C34.4373 35.7794 34.0974 35.4993 33.8133 35.1805L24.3977 40.6087C24.5326 41.0145 24.6054 41.449 24.6054 41.9006C24.6054 44.1559 22.7703 46 20.5 46C18.2297 46 16.3946 44.1676 16.3946 41.9006C16.3946 41.4975 16.4522 41.1088 16.561 40.7407L7.0905 35.2811C6.82616 35.5576 6.51955 35.8018 6.17159 36.0038C4.19532 37.1315 1.68947 36.4617 0.560168 34.5C-0.56913 32.5383 0.101615 30.0361 2.0662 28.8968C2.41326 28.6975 2.7774 28.5547 3.14784 28.4649V17.5377C2.77291 17.448 2.40517 17.3043 2.05451 17.1032C0.0899268 15.9756 -0.580819 13.4617 0.548479 11.5C1.67778 9.53829 4.19532 8.86853 6.15991 9.99617C6.51146 10.2 6.82076 10.4478 7.0869 10.7279L16.5628 5.26563C16.4507 4.887 16.3941 4.49419 16.3946 4.09938C16.3946 1.83242 18.2297 0 20.5 0C22.7703 0 24.6054 1.83242 24.6054 4.09938C24.6054 4.50699 24.5461 4.90023 24.4355 5.27102L33.9086 10.7333C34.1757 10.4505 34.4868 10.2018 34.8401 9.99617C36.8047 8.86853 39.3106 9.53829 40.4515 11.5C41.5808 13.4617 40.9101 15.9639 38.9455 17.1032C38.5949 17.3043 38.2271 17.448 37.8522 17.5377V28.4649C38.2226 28.5547 38.5868 28.6975 38.9338 28.8968C40.9101 30.0361 41.5808 32.5383 40.4399 34.5ZM5.10074 28.4694C5.15558 28.4829 5.20863 28.4973 5.26258 28.5134L17.6642 7.06574C17.6237 7.02713 17.5851 6.98942 17.5464 6.94902L8.05436 12.422C8.34927 13.4536 8.24227 14.5965 7.66594 15.5994C7.0878 16.604 6.14552 17.2693 5.10074 17.5288V28.4694ZM6.95563 29.4849C7.23166 29.7479 7.47622 30.0541 7.67762 30.4006C7.87723 30.7472 8.02019 31.1108 8.1101 31.4816H32.8899C32.9798 31.1108 33.1228 30.7472 33.3224 30.4006C33.5179 30.0608 33.7614 29.7509 34.0453 29.4804L21.6473 8.03716C21.2831 8.1431 20.8983 8.19877 20.5 8.19877C20.1026 8.19877 19.7196 8.1431 19.3563 8.03896L6.95563 29.4849ZM35.7401 28.5116C35.7932 28.4964 35.8453 28.482 35.8993 28.4685V17.5288C34.8545 17.2693 33.9122 16.604 33.3341 15.5994C32.7587 14.5992 32.6508 13.4581 32.9448 12.4283L23.4491 6.95441C23.4132 6.99122 23.3763 7.02713 23.3385 7.06304L35.7401 28.5116ZM32.9699 33.7001C32.9412 33.6112 32.916 33.5214 32.8944 33.4316H8.10471C8.09212 33.4846 8.07773 33.5376 8.06245 33.5896L17.5419 39.0555C18.2891 38.2816 19.3374 37.8012 20.5 37.8012C21.7039 37.8012 22.7856 38.3166 23.5364 39.139L32.9699 33.7001Z" fill="#212121"/>
</g>
<defs>
<clipPath id="clip0_1324_625">
<rect width="41" height="46" fill="white"/>
</clipPath>
</defs>
</svg>
