<svg width="22" height="20" viewBox="0 0 22 20" fill="none" xmlns="http://www.w3.org/2000/svg">
<circle cx="10" cy="9" r="9" fill="#D9D9D9" fill-opacity="0.74"/>
<g clip-path="url(#clip0_1232_907)">
<path d="M7.37476 12.8805C7.37476 12.7474 7.30501 12.627 7.22438 12.5209C7.14042 12.4134 7.0944 12.2812 7.09351 12.1448C7.09351 11.7563 7.47113 11.4417 7.93726 11.4417C8.40338 11.4417 8.78101 11.7567 8.78101 12.1448C8.78101 12.2832 8.73301 12.4122 8.65013 12.5209C8.56951 12.627 8.49976 12.7474 8.49976 12.8805C8.49976 13.005 8.60401 13.1048 8.72851 13.0973C9.44476 13.0545 10.1498 12.969 10.8405 12.8438C10.8781 12.837 10.9167 12.8379 10.954 12.8465C10.9913 12.8551 11.0264 12.8712 11.0572 12.8939C11.088 12.9165 11.1139 12.9452 11.1332 12.9782C11.1526 13.0111 11.165 13.0477 11.1698 13.0857C11.2546 13.764 11.3017 14.4466 11.3108 15.1302C11.3111 15.1628 11.305 15.1952 11.2927 15.2255C11.2804 15.2558 11.2622 15.2833 11.2391 15.3065C11.2161 15.3296 11.1887 15.348 11.1585 15.3605C11.1283 15.373 11.0959 15.3793 11.0633 15.3792C10.9305 15.3792 10.8101 15.3094 10.704 15.2288C10.5965 15.1448 10.4643 15.0988 10.3279 15.0979C9.93976 15.0979 9.62476 15.4755 9.62476 15.9417C9.62476 16.4078 9.93976 16.7854 10.3279 16.7854C10.4663 16.7854 10.5953 16.7374 10.704 16.6545C10.8101 16.5739 10.9305 16.5042 11.0636 16.5042C11.1799 16.5042 11.2725 16.6024 11.2639 16.7183C11.2199 17.3272 11.1454 17.9336 11.0408 18.5352C11.0308 18.5922 11.0035 18.6448 10.9626 18.6857C10.9216 18.7266 10.869 18.754 10.812 18.7639C10.1295 18.8828 9.43463 18.9638 8.72888 19.0047C8.69932 19.0062 8.66975 19.0018 8.64198 18.9915C8.61421 18.9813 8.58883 18.9655 8.56738 18.9451C8.54593 18.9247 8.52887 18.9001 8.51724 18.8729C8.50561 18.8457 8.49966 18.8164 8.49976 18.7868C8.49976 18.6537 8.56951 18.5333 8.65013 18.4272C8.73301 18.3184 8.78101 18.1894 8.78101 18.051C8.78101 17.6629 8.40338 17.3479 7.93726 17.3479C7.47113 17.3479 7.09351 17.6629 7.09351 18.051C7.09351 18.1894 7.14151 18.3184 7.22438 18.4272C7.30501 18.5333 7.37476 18.6537 7.37476 18.7868C7.37487 18.8189 7.36852 18.8508 7.35609 18.8805C7.34366 18.9102 7.32539 18.937 7.30238 18.9595C7.27937 18.982 7.25208 18.9997 7.22213 19.0114C7.19217 19.0231 7.16017 19.0288 7.12801 19.0279C6.53768 19.0112 5.9485 18.9662 5.36251 18.8929C5.32456 18.8882 5.28799 18.8757 5.25501 18.8564C5.22203 18.837 5.19335 18.8111 5.17071 18.7803C5.14807 18.7495 5.13195 18.7144 5.12334 18.6772C5.11473 18.6399 5.11381 18.6013 5.12063 18.5637C5.23051 17.9584 5.30963 17.3423 5.35651 16.7172C5.35847 16.6898 5.35477 16.6624 5.34564 16.6366C5.33651 16.6108 5.32215 16.5872 5.30345 16.5672C5.28476 16.5472 5.26213 16.5313 5.237 16.5204C5.21186 16.5096 5.18476 16.504 5.15738 16.5042C5.02426 16.5042 4.90388 16.5739 4.79776 16.6545C4.68901 16.7374 4.56001 16.7854 4.42163 16.7854C4.03313 16.7854 3.71851 16.4078 3.71851 15.9417C3.71851 15.4755 4.03351 15.0979 4.42163 15.0979C4.56001 15.0979 4.68901 15.1459 4.79776 15.2288C4.90388 15.3094 5.02426 15.3792 5.15738 15.3792C5.19 15.3793 5.22233 15.373 5.25248 15.3605C5.28263 15.348 5.31 15.3297 5.33299 15.3066C5.35599 15.2834 5.37416 15.256 5.38643 15.2257C5.39871 15.1955 5.40485 15.1631 5.40451 15.1305C5.3963 14.5264 5.3575 13.9232 5.28826 13.323C5.28335 13.2809 5.28802 13.2383 5.30191 13.1982C5.31581 13.1582 5.33857 13.1218 5.3685 13.0918C5.39843 13.0618 5.43475 13.039 5.47475 13.025C5.51476 13.011 5.5574 13.0062 5.59951 13.011C6.10313 13.0692 6.61313 13.1063 7.12838 13.1213C7.16049 13.1221 7.19245 13.1165 7.22236 13.1048C7.25227 13.0931 7.27952 13.0755 7.30249 13.053C7.32547 13.0306 7.3437 13.0037 7.35612 12.9741C7.36853 12.9445 7.37487 12.9126 7.37476 12.8805Z" fill="black"/>
</g>
<g clip-path="url(#clip1_1232_907)">
<path d="M16.586 7.91485C16.683 7.81777 16.72 7.67913 16.7386 7.54295C16.7557 7.40335 16.8186 7.27336 16.9174 7.17325C17.2007 6.88995 17.7055 6.93589 18.0454 7.27579C18.3853 7.61569 18.431 8.12076 18.1479 8.40378C18.047 8.50468 17.918 8.56375 17.7782 8.58262C17.642 8.60121 17.5034 8.63813 17.4063 8.7352C17.3155 8.82599 17.3188 8.97475 17.4151 9.06006C17.9685 9.55118 18.545 10.0029 19.14 10.4153C19.1724 10.4377 19.1999 10.4666 19.2208 10.5C19.2417 10.5335 19.2555 10.5708 19.2615 10.6098C19.2675 10.6488 19.2654 10.6886 19.2555 10.7267C19.2455 10.7649 19.2279 10.8006 19.2037 10.8318C18.7709 11.3883 18.3076 11.9203 17.8157 12.4254C17.7921 12.4495 17.764 12.4687 17.733 12.4818C17.7019 12.4949 17.6686 12.5017 17.6349 12.5018C17.6012 12.5019 17.5678 12.4953 17.5367 12.4824C17.5056 12.4694 17.4773 12.4505 17.4536 12.4265C17.3568 12.3297 17.3199 12.1911 17.3013 12.0549C17.2842 11.9153 17.2213 11.7853 17.1225 11.6852C16.8395 11.4022 16.3344 11.4478 15.9945 11.7877C15.6546 12.1276 15.6089 12.6327 15.892 12.9157C15.9929 13.0166 16.1219 13.0757 16.2617 13.0946C16.3978 13.1132 16.5365 13.1501 16.6336 13.2472C16.7183 13.3319 16.7142 13.4711 16.6234 13.5493C16.1473 13.9613 15.6508 14.3492 15.1359 14.7115C15.087 14.7458 15.0288 14.7642 14.9691 14.7642C14.9093 14.7642 14.8511 14.7458 14.8023 14.7115C14.2179 14.3005 13.6521 13.8528 13.1077 13.368C13.085 13.3476 13.0667 13.3228 13.0539 13.2951C13.0411 13.2674 13.0341 13.2373 13.0333 13.2068C13.0326 13.1763 13.038 13.1459 13.0494 13.1176C13.0608 13.0893 13.0778 13.0636 13.0995 13.0421C13.1965 12.945 13.3352 12.9081 13.4714 12.8895C13.6111 12.8706 13.7402 12.8115 13.8411 12.7106C14.1241 12.4276 14.0784 11.9226 13.7385 11.5827C13.3986 11.2428 12.8936 11.1971 12.6105 11.4801C12.5096 11.581 12.4506 11.7101 12.4317 11.8498C12.4131 11.986 12.3762 12.1246 12.2791 12.2217C12.2557 12.2453 12.2279 12.2639 12.1972 12.2764C12.1665 12.289 12.1335 12.2953 12.1004 12.2949C12.0672 12.2945 12.0344 12.2875 12.004 12.2742C11.9736 12.2609 11.9462 12.2417 11.9234 12.2176C11.505 11.775 11.1083 11.3125 10.7344 10.8318C10.7102 10.8006 10.6926 10.7649 10.6826 10.7267C10.6727 10.6886 10.6706 10.6488 10.6766 10.6098C10.6826 10.5708 10.6964 10.5335 10.7173 10.5C10.7382 10.4666 10.7657 10.4377 10.7981 10.4153C11.3196 10.0541 11.8266 9.66248 12.3166 9.24081C12.3379 9.22233 12.3552 9.19964 12.3674 9.17417C12.3795 9.14869 12.3863 9.12098 12.3873 9.09276C12.3882 9.06455 12.3833 9.03644 12.3729 9.0102C12.3625 8.98396 12.3467 8.96016 12.3267 8.94029C12.2296 8.84322 12.091 8.8063 11.9548 8.7877C11.8151 8.76884 11.686 8.70977 11.5851 8.60887C11.3018 8.32557 11.3477 7.82078 11.6876 7.48088C12.0275 7.14098 12.5326 7.09531 12.8156 7.37834C12.9165 7.47924 12.9756 7.60831 12.9945 7.74804C13.0131 7.88422 13.05 8.02286 13.147 8.11994C13.1707 8.14383 13.1989 8.16278 13.23 8.17568C13.2611 8.18858 13.2944 8.19517 13.328 8.19507C13.3617 8.19497 13.395 8.18818 13.4259 8.17509C13.4569 8.162 13.485 8.14288 13.5086 8.11884C13.9431 7.67237 14.3547 7.20416 14.7418 6.71604C14.7689 6.68176 14.8034 6.65406 14.8428 6.635C14.8821 6.61594 14.9252 6.60601 14.9689 6.60596C15.0126 6.60591 15.0558 6.61573 15.0951 6.6347C15.1345 6.65366 15.1691 6.68128 15.1963 6.71549C15.5212 7.12512 15.866 7.52409 16.2308 7.91075C16.2536 7.93479 16.2809 7.954 16.3113 7.96726C16.3417 7.98052 16.3744 7.98755 16.4075 7.98793C16.4406 7.98831 16.4735 7.98204 16.5041 7.96949C16.5348 7.95693 16.5626 7.93835 16.586 7.91485Z" fill="black"/>
</g>
<g clip-path="url(#clip2_1232_907)">
<path d="M8.58991 9.17966C8.68699 9.27674 8.82563 9.31365 8.96181 9.33225C9.10141 9.3494 9.2314 9.41229 9.33151 9.51109C9.61481 9.79438 9.56887 10.2992 9.22897 10.6391C8.88907 10.979 8.384 11.0246 8.10098 10.7416C8.00008 10.6407 7.94101 10.5116 7.92214 10.3719C7.90355 10.2357 7.86663 10.0971 7.76956 10C7.67877 9.90923 7.53002 9.91251 7.4447 10.0088C6.95358 10.5622 6.50184 11.1387 6.08947 11.7337C6.06701 11.7661 6.03818 11.7936 6.00473 11.8145C5.97129 11.8354 5.93393 11.8492 5.89495 11.8552C5.85597 11.8612 5.81619 11.8591 5.77803 11.8492C5.73987 11.8392 5.70413 11.8216 5.67301 11.7974C5.11646 11.3646 4.58441 10.9012 4.07933 10.4094C4.05525 10.3858 4.03611 10.3577 4.023 10.3266C4.00989 10.2956 4.00309 10.2623 4.00299 10.2286C4.00289 10.1949 4.00949 10.1615 4.02241 10.1304C4.03533 10.0993 4.0543 10.071 4.07824 10.0473C4.17504 9.95052 4.31368 9.91361 4.44986 9.89501C4.58946 9.87786 4.71946 9.81497 4.81956 9.71617C5.10259 9.43315 5.05692 8.92809 4.71702 8.58819C4.37712 8.24829 3.87206 8.20262 3.58903 8.48564C3.48813 8.58655 3.42906 8.71562 3.4102 8.85535C3.3916 8.99153 3.35469 9.13017 3.25761 9.22724C3.17284 9.31201 3.03365 9.30791 2.95545 9.21713C2.54347 8.74098 2.1556 8.24449 1.79328 7.72955C1.75894 7.6807 1.74051 7.62245 1.74051 7.56274C1.74051 7.50304 1.75894 7.44478 1.79328 7.39594C2.20428 6.81157 2.65192 6.2458 3.13674 5.70136C3.15714 5.67865 3.18196 5.66035 3.20968 5.64757C3.2374 5.63479 3.26744 5.6278 3.29795 5.62703C3.32847 5.62626 3.35882 5.63173 3.38715 5.6431C3.41547 5.65447 3.44118 5.6715 3.4627 5.69316C3.55977 5.79023 3.59669 5.92887 3.61528 6.06505C3.63415 6.20478 3.69322 6.33385 3.79412 6.43476C4.07714 6.71778 4.58221 6.67211 4.92211 6.33221C5.26201 5.99231 5.30768 5.48725 5.02465 5.20423C4.92375 5.10332 4.79468 5.04426 4.65495 5.02539C4.51877 5.00679 4.38013 4.96988 4.28305 4.8728C4.25951 4.84942 4.2409 4.82155 4.22833 4.79085C4.21575 4.76015 4.20947 4.72723 4.20986 4.69405C4.21024 4.66088 4.21728 4.62812 4.23055 4.59771C4.24383 4.5673 4.26308 4.53987 4.28715 4.51704C4.72978 4.09873 5.19226 3.70195 5.67301 3.32807C5.70413 3.30386 5.73987 3.28625 5.77803 3.27632C5.81619 3.26639 5.85597 3.26434 5.89495 3.2703C5.93393 3.27626 5.97129 3.29011 6.00473 3.311C6.03818 3.33189 6.06701 3.35938 6.08947 3.39179C6.4507 3.91326 6.84228 4.42024 7.26395 4.91027C7.28243 4.93161 7.30512 4.9489 7.33059 4.96107C7.35607 4.97323 7.38378 4.98 7.412 4.98095C7.44021 4.9819 7.46832 4.97701 7.49456 4.96659C7.5208 4.95616 7.5446 4.94043 7.56447 4.92038C7.66155 4.82331 7.69846 4.68467 7.71706 4.54849C7.73592 4.40876 7.79499 4.27969 7.89589 4.17878C8.17919 3.89549 8.68398 3.94143 9.02388 4.28133C9.36378 4.62123 9.40945 5.12629 9.12642 5.40931C9.02552 5.51022 8.89645 5.56928 8.75672 5.58815C8.62054 5.60675 8.4819 5.64366 8.38482 5.74074C8.36093 5.76441 8.34198 5.79261 8.32908 5.82368C8.31618 5.85475 8.30959 5.88808 8.30969 5.92172C8.30979 5.95536 8.31658 5.98864 8.32967 6.01964C8.34276 6.05063 8.36188 6.07871 8.38592 6.10224C8.8324 6.53675 9.3006 6.94837 9.78872 7.33551C9.823 7.36262 9.8507 7.39713 9.86976 7.43646C9.88882 7.47578 9.89875 7.51891 9.8988 7.56261C9.89885 7.60631 9.88903 7.64946 9.87006 7.68883C9.8511 7.72821 9.82348 7.76278 9.78927 7.78998C9.37964 8.11484 8.98068 8.45966 8.59401 8.82445C8.56998 8.84724 8.55076 8.87463 8.5375 8.90499C8.52424 8.93535 8.51721 8.96806 8.51683 9.00119C8.51645 9.03431 8.52272 9.06718 8.53527 9.09784C8.54783 9.12849 8.56641 9.15632 8.58991 9.17966Z" fill="black"/>
</g>
<defs>
<clipPath id="clip0_1232_907">
<rect width="9" height="9" fill="white" transform="translate(3.15601 10.8792)"/>
</clipPath>
<clipPath id="clip1_1232_907">
<rect width="9.28125" height="9.28125" fill="white" transform="translate(14.9691 3.37915) rotate(45)"/>
</clipPath>
<clipPath id="clip2_1232_907">
<rect width="9.28125" height="9.28125" fill="white" transform="translate(13.1257 7.56274) rotate(135)"/>
</clipPath>
</defs>
</svg>
