<svg width="25" height="21" viewBox="0 0 25 21" fill="none" xmlns="http://www.w3.org/2000/svg">
<circle cx="12.5" cy="10.5" r="10.5" fill="#D9D9D9"/>
<path d="M13.8281 8.625C13.267 8.625 12.8125 9.08 12.8125 9.64063V10.0469C12.8125 10.608 13.2675 11.0625 13.8281 11.0625H23.1719C23.7325 11.0625 24.1875 10.6075 24.1875 10.0469V9.64063C24.1875 9.07946 23.7325 8.625 23.1719 8.625H13.8281Z" fill="black"/>
<path fill-rule="evenodd" clip-rule="evenodd" d="M13.6721 11.875L13.9646 16.8453C13.9889 17.2589 14.1703 17.6476 14.4716 17.9319C14.773 18.2163 15.1715 18.3747 15.5858 18.375H21.4125C21.827 18.375 22.2259 18.2167 22.5274 17.9323C22.829 17.648 23.0105 17.2591 23.0348 16.8453L23.3279 11.875H13.6721ZM17.0104 13.9063C17.0104 13.7985 17.0532 13.6952 17.1294 13.619C17.2056 13.5428 17.3089 13.5 17.4167 13.5H19.5833C19.6911 13.5 19.7944 13.5428 19.8706 13.619C19.9468 13.6952 19.9896 13.7985 19.9896 13.9063C19.9896 14.014 19.9468 14.1173 19.8706 14.1935C19.7944 14.2697 19.6911 14.3125 19.5833 14.3125H17.4167C17.3089 14.3125 17.2056 14.2697 17.1294 14.1935C17.0532 14.1173 17.0104 14.014 17.0104 13.9063Z" fill="black"/>
<path d="M1.82813 2.625C1.26696 2.625 0.8125 3.08 0.8125 3.64063V4.04688C0.8125 4.60804 1.2675 5.0625 1.82813 5.0625H11.1719C11.7325 5.0625 12.1875 4.6075 12.1875 4.04688V3.64063C12.1875 3.07946 11.7325 2.625 11.1719 2.625H1.82813Z" fill="black"/>
<path fill-rule="evenodd" clip-rule="evenodd" d="M1.67212 5.875L1.96462 10.8453C1.98892 11.2589 2.17029 11.6476 2.47163 11.9319C2.77297 12.2163 3.17153 12.3747 3.58583 12.375H9.41254C9.82703 12.375 10.2259 12.2167 10.5274 11.9323C10.829 11.648 11.0105 11.2591 11.0348 10.8453L11.3279 5.875H1.67212ZM4.99416 7.41604C5.07033 7.33996 5.17359 7.29723 5.28124 7.29723C5.3889 7.29723 5.49216 7.33996 5.56833 7.41604L6.49999 8.34771L7.43166 7.41604C7.46885 7.37613 7.5137 7.34411 7.56354 7.32191C7.61337 7.29971 7.66716 7.28777 7.72171 7.2868C7.77626 7.28584 7.83044 7.29588 7.88103 7.31631C7.93161 7.33674 7.97756 7.36715 8.01614 7.40573C8.05472 7.44431 8.08513 7.49026 8.10556 7.54084C8.12599 7.59143 8.13603 7.64561 8.13507 7.70016C8.1341 7.75471 8.12216 7.8085 8.09996 7.85833C8.07776 7.90817 8.04574 7.95302 8.00583 7.99021L7.07416 8.92188L8.00583 9.85354C8.04574 9.89073 8.07776 9.93558 8.09996 9.98542C8.12216 10.0352 8.1341 10.089 8.13507 10.1436C8.13603 10.1981 8.12599 10.2523 8.10556 10.3029C8.08513 10.3535 8.05472 10.3994 8.01614 10.438C7.97756 10.4766 7.93161 10.507 7.88103 10.5274C7.83044 10.5479 7.77626 10.5579 7.72171 10.5569C7.66716 10.556 7.61337 10.544 7.56354 10.5218C7.5137 10.4996 7.46885 10.4676 7.43166 10.4277L6.49999 9.49604L5.56833 10.4277C5.53114 10.4676 5.48629 10.4996 5.43645 10.5218C5.38662 10.544 5.33282 10.556 5.27828 10.5569C5.22373 10.5579 5.16955 10.5479 5.11896 10.5274C5.06838 10.507 5.02243 10.4766 4.98385 10.438C4.94527 10.3994 4.91486 10.3535 4.89443 10.3029C4.874 10.2523 4.86396 10.1981 4.86492 10.1436C4.86589 10.089 4.87783 10.0352 4.90003 9.98542C4.92223 9.93558 4.95425 9.89073 4.99416 9.85354L5.92583 8.92188L4.99416 7.99021C4.91808 7.91404 4.87535 7.81078 4.87535 7.70313C4.87535 7.59547 4.91808 7.49221 4.99416 7.41604V7.41604Z" fill="black"/>
</svg>
