<?xml version="1.0" encoding="UTF-8" standalone="no"?>
<!-- Created with Inkscape (http://www.inkscape.org/) -->

<svg
   xmlns:dc="http://purl.org/dc/elements/1.1/"
   xmlns:cc="http://creativecommons.org/ns#"
   xmlns:rdf="http://www.w3.org/1999/02/22-rdf-syntax-ns#"
   xmlns:svg="http://www.w3.org/2000/svg"
   xmlns="http://www.w3.org/2000/svg"
   xmlns:sodipodi="http://sodipodi.sourceforge.net/DTD/sodipodi-0.dtd"
   xmlns:inkscape="http://www.inkscape.org/namespaces/inkscape"
   width="170mm"
   height="168mm"
   viewBox="0 0 170 167.99999"
   version="1.1"
   id="svg8"
   inkscape:version="0.92.5 (2060ec1f9f, 2020-04-08)"
   sodipodi:docname="drawing.svg">
  <defs
     id="defs2" />
  <sodipodi:namedview
     id="base"
     pagecolor="#ffffff"
     bordercolor="#666666"
     borderopacity="1.0"
     inkscape:pageopacity="0.0"
     inkscape:pageshadow="2"
     inkscape:zoom="0.35"
     inkscape:cx="400"
     inkscape:cy="445.71429"
     inkscape:document-units="mm"
     inkscape:current-layer="layer1"
     showgrid="false"
     inkscape:window-width="1920"
     inkscape:window-height="1009"
     inkscape:window-x="0"
     inkscape:window-y="0"
     inkscape:window-maximized="1"
     units="mm"
     height="209mm"
     scale-x="1" />
  <metadata
     id="metadata5">
    <rdf:RDF>
      <cc:Work
         rdf:about="">
        <dc:format>image/svg+xml</dc:format>
        <dc:type
           rdf:resource="http://purl.org/dc/dcmitype/StillImage" />
        <dc:title></dc:title>
      </cc:Work>
    </rdf:RDF>
  </metadata>
  <g
     inkscape:label="Layer 1"
     inkscape:groupmode="layer"
     id="layer1"
     transform="translate(0,-129)">
    <g
       style="display:inline"
       id="layer1-9"
       inkscape:label="Layer 1"
       transform="translate(-17.970111,61.640705)">
      <g
         transform="rotate(3.5379598,1028.1223,-4740.0751)"
         id="g4572">
        <g
           style="stroke-width:1.03976059"
           transform="matrix(0.96175987,0,0,0.96175987,52.35051,98.543762)"
           id="g4628">
          <ellipse
             style="fill:#6366f1;fill-opacity:1;stroke-width:0.27510336"
             id="path4618"
             cx="383.10327"
             cy="101.09111"
             transform="rotate(-3.5379602)"
             rx="54"
             ry="54.000004" />
          <path
             style="fill:#000000;stroke-width:1.03976059"
             d="m 351.44676,182.13162 c -0.0266,-13.45511 -0.86435,-59.16297 -1.08837,-59.37891 -0.13712,-0.13217 -14.46677,1.3129 -31.84368,3.21126 -17.37691,1.89838 -31.66574,3.38562 -31.75295,3.305 -0.0872,-0.0806 8.57468,-10.21674 19.24865,-22.52474 l 19.40723,-22.378149 6.94036,-0.76144 c 3.8172,-0.4188 18.29457,-2.018732 32.17193,-3.555402 13.87737,-1.53667 25.40623,-2.63963 25.61969,-2.45102 0.21347,0.18861 0.54796,12.480065 0.74331,27.314341 0.19534,14.83429 0.41307,29.30573 0.48382,32.15877 l 0.12864,5.18735 -20.02395,22.6513 -20.02396,22.6513 z"
             id="path4624"
             inkscape:connector-curvature="0" />
        </g>
      </g>
    </g>
  </g>
</svg>
