<svg width="107" height="94" viewBox="0 0 107 94" fill="none" xmlns="http://www.w3.org/2000/svg">
<g id="postgresql-vertical 1">
<path id="Vector" d="M11.2 78.902H6.54201V74.642H11.462C13.262 74.642 14.164 75.362 14.164 76.805C14.164 78.203 13.179 78.902 11.209 78.902M14.563 74.602C13.923 74.082 13.029 73.822 11.879 73.822L5.19501 73.856V84.056H6.54201L6.53001 79.718H11.503C12.75 79.718 13.733 79.458 14.448 78.938C15.163 78.418 15.523 77.698 15.523 76.775C15.523 75.852 15.203 75.132 14.563 74.612V74.602ZM23.28 81.898C23.1464 82.2379 22.9261 82.5368 22.641 82.765C22.038 83.299 21.118 83.565 19.881 83.565C18.763 83.565 17.905 83.305 17.307 82.785C16.709 82.265 16.409 81.571 16.409 80.7C16.409 80.247 16.487 79.844 16.644 79.493C16.7973 79.1469 17.0303 78.8419 17.324 78.603C17.944 78.091 18.794 77.835 19.881 77.835C22.285 77.835 23.487 78.79 23.487 80.699C23.487 81.153 23.417 81.551 23.282 81.895M23.526 78.135C22.706 77.455 21.49 77.115 19.881 77.115C18.361 77.115 17.185 77.462 16.357 78.155C15.609 78.783 15.235 79.63 15.235 80.695C15.235 81.76 15.621 82.608 16.395 83.258C16.8326 83.6142 17.3408 83.8736 17.886 84.019C18.453 84.176 19.119 84.254 19.883 84.254C21.483 84.254 22.703 83.918 23.54 83.246C24.288 82.633 24.662 81.782 24.662 80.694C24.662 79.599 24.284 78.744 23.527 78.131L23.526 78.135ZM33.712 82.192C33.712 83.564 32.358 84.249 29.649 84.249C28.821 84.249 28.124 84.201 27.557 84.106C26.99 84.011 26.53 83.852 26.177 83.632C25.904 83.464 25.677 83.245 25.527 82.975C25.3573 82.6593 25.251 82.3135 25.214 81.957L26.474 81.947C26.474 82.487 26.694 82.884 27.136 83.14C27.609 83.447 28.448 83.6 29.651 83.6C31.544 83.6 32.491 83.17 32.491 82.3C32.491 81.797 32.174 81.45 31.539 81.26C31.409 81.223 30.645 81.127 29.242 80.96L26.62 80.54C25.873 80.27 25.5 79.785 25.5 79.084C25.5 78.398 25.834 77.887 26.502 77.552C26.832 77.412 27.244 77.306 27.739 77.229C28.234 77.152 28.807 77.114 29.459 77.114C32.066 77.114 33.359 77.856 33.359 79.341H32.159C32.159 78.298 31.243 77.776 29.409 77.776C28.477 77.776 27.781 77.882 27.323 78.093C26.865 78.304 26.636 78.629 26.636 79.067C26.636 79.467 26.936 79.771 27.564 79.953C27.926 80.048 28.758 80.158 30.06 80.281C31.226 80.376 32.025 80.511 32.46 80.686C33.288 80.978 33.702 81.474 33.702 82.174L33.712 82.192ZM38.66 84.05L38.147 84.115L37.827 84.137C37.007 84.137 36.415 84.029 36.052 83.813C35.689 83.597 35.508 83.219 35.508 82.678V78.028H34.013V77.344H35.496L35.508 75.147H36.658V77.344H38.658V78.039L36.658 78.029V82.553C36.658 82.89 36.756 83.123 36.954 83.251C37.152 83.379 37.504 83.443 38.009 83.443C38.081 83.45 38.162 83.448 38.249 83.436C38.336 83.424 38.469 83.396 38.647 83.354L38.659 84.052L38.66 84.05ZM46.607 82.508C46.2826 82.7467 45.9197 82.928 45.534 83.044C45.132 83.168 44.67 83.23 44.148 83.23C41.745 83.23 40.544 82.33 40.544 80.53C40.544 79.692 40.851 79.035 41.466 78.562C42.081 78.089 42.946 77.862 44.063 77.862C45.188 77.862 46.043 78.102 46.623 78.578C47.203 79.054 47.497 79.695 47.497 80.498C47.497 81.373 47.2 82.048 46.605 82.521M48.645 77.361H47.5L47.488 78.511C46.982 78.044 46.62 77.749 46.403 77.625C45.76 77.305 44.928 77.145 43.907 77.145C42.411 77.145 41.27 77.445 40.482 78.075C39.734 78.645 39.36 79.468 39.36 80.547C39.36 81.079 39.455 81.555 39.644 81.974C39.8307 82.3902 40.1143 82.7557 40.471 83.04C41.271 83.638 42.375 83.937 43.817 83.937C45.547 83.937 46.777 83.507 47.501 82.637V83.837C47.501 84.597 47.237 85.183 46.701 85.599C46.165 86.015 45.308 86.223 44.101 86.223C42.967 86.223 42.159 86.081 41.677 85.798C41.315 85.58 41.077 85.202 40.929 84.665H39.747C39.877 85.415 40.227 85.959 40.797 86.295C41.457 86.681 42.57 86.875 44.139 86.875C47.139 86.875 48.639 85.863 48.639 83.839V77.339L48.645 77.361ZM54.862 78.036C54.5429 77.9873 54.2208 77.9619 53.898 77.96C52.01 77.96 51.066 78.9 51.066 80.78V84.048H49.93L49.918 77.361L51.068 77.371V78.564H51.128C51.3034 78.1142 51.6263 77.7372 52.044 77.495C52.502 77.26 53.184 77.142 54.094 77.142H54.864V78.037L54.862 78.036ZM55.93 80.27C56.075 79.51 56.4 78.922 56.906 78.505C57.236 78.265 57.609 78.083 58.026 77.962C58.443 77.841 58.914 77.782 59.426 77.782C60.446 77.782 61.28 78.036 61.926 78.544C62.572 79.052 62.896 79.627 62.896 80.271H55.916M63.008 78.208C62.606 77.842 62.108 77.571 61.512 77.396C60.916 77.221 60.212 77.132 59.425 77.132C57.925 77.132 56.782 77.446 55.961 78.074C55.14 78.702 54.731 79.556 54.731 80.637C54.731 81.718 55.125 82.575 55.913 83.21C56.765 83.91 57.968 84.26 59.52 84.26C60.14 84.26 60.712 84.196 61.24 84.06C61.768 83.924 62.227 83.753 62.62 83.52C63.312 83.07 63.75 82.513 63.935 81.852H62.693C62.267 82.995 61.206 83.567 59.51 83.567C58.312 83.567 57.39 83.287 56.75 82.727C56.195 82.247 55.918 81.627 55.918 80.864H64.118C64.118 79.73 63.752 78.84 63.02 78.196L63.008 78.208Z" fill="#3F3F3F"/>
<path id="Vector_2" d="M76.258 81.305C76.258 83.29 74.494 84.283 70.964 84.283C68.849 84.283 67.306 83.941 66.334 83.257C65.538 82.695 65.14 81.837 65.14 80.685H66.56C66.56 82.538 68.027 83.465 70.963 83.465C72.37 83.465 73.388 83.265 74.016 82.895C74.546 82.56 74.812 82.035 74.812 81.32C74.812 80.613 74.45 80.117 73.726 79.833C73.326 79.68 72.314 79.487 70.722 79.253C68.719 78.976 67.422 78.699 66.825 78.423C65.965 78.015 65.525 77.323 65.525 76.345C65.525 75.445 65.891 74.745 66.623 74.311C67.411 73.823 68.763 73.578 70.677 73.578C74.137 73.578 75.865 74.62 75.865 76.705H74.432C74.432 75.143 73.148 74.363 70.58 74.363C69.292 74.363 68.35 74.52 67.754 74.833C67.19 75.169 66.909 75.661 66.909 76.311C66.909 76.991 67.271 77.468 67.995 77.745C68.381 77.905 69.515 78.128 71.397 78.413C73.167 78.653 74.361 78.935 74.981 79.256C75.826 79.65 76.248 80.333 76.248 81.304L76.258 81.305ZM87.798 82.318C87.2536 82.7104 86.6448 83.0045 85.999 83.187C85.331 83.38 84.582 83.487 83.753 83.487C82.053 83.487 80.696 83.074 79.653 82.247C78.61 81.42 78.1 80.307 78.1 78.93C78.1 77.495 78.617 76.377 79.65 75.575C80.683 74.773 82.055 74.373 83.762 74.373C85.492 74.373 86.854 74.793 87.844 75.63C88.3387 76.0086 88.7363 76.4995 89.004 77.062C89.264 77.609 89.378 78.232 89.378 78.932C89.378 80.36 88.855 81.489 87.808 82.319M88.563 82.995C89.303 82.521 89.851 81.947 90.205 81.273C90.559 80.599 90.737 79.82 90.737 78.938C90.737 77.356 90.157 76.088 88.999 75.132C88.379 74.607 87.631 74.217 86.755 73.962C85.879 73.707 84.875 73.579 83.751 73.579C81.563 73.579 79.846 74.059 78.599 75.023C77.352 75.987 76.729 77.29 76.729 78.938C76.7097 79.6889 76.871 80.4334 77.1994 81.109C77.5278 81.7845 78.0136 82.3713 78.616 82.82C79.873 83.804 81.594 84.296 83.773 84.296C84.5194 84.3039 85.2651 84.2514 86.003 84.139C86.637 84.034 87.177 83.874 87.62 83.657L89.72 84.977L90.596 84.247L88.564 82.997L88.563 82.995ZM101.367 84.035H91.66V73.835L92.994 73.813V83.183H101.379L101.367 84.035V84.035Z" fill="black"/>
<g id="Vector_3">
<path d="M67.546 49.655C67.928 46.47 67.814 46.003 70.186 46.519L70.788 46.572C72.612 46.655 74.988 46.279 76.4 45.627C79.418 44.227 81.207 41.889 78.232 42.503C71.445 43.903 70.978 41.605 70.978 41.605C78.145 30.971 81.141 17.471 78.555 14.165C71.501 5.152 59.292 9.415 59.087 9.525L59.022 9.537C57.68 9.259 56.18 9.093 54.494 9.065C51.424 9.015 49.092 9.87 47.324 11.211C47.324 11.211 25.544 2.237 26.556 22.497C26.772 26.797 32.734 55.109 39.844 46.56C42.444 43.434 44.954 40.79 44.954 40.79C46.201 41.62 47.694 42.04 49.26 41.89L49.38 41.787C49.342 42.175 49.36 42.555 49.428 43.004C47.596 45.051 48.135 45.41 44.472 46.164C40.767 46.928 42.944 48.287 44.365 48.642C46.088 49.072 50.075 49.682 52.767 45.912L52.66 46.342C53.38 46.917 53.33 50.474 53.432 53.015C53.534 55.556 53.704 57.928 54.232 59.327C54.76 60.726 55.362 64.327 60.175 63.295C64.198 62.433 67.273 61.192 67.555 49.651" fill="#231F20"/>
<path d="M67.546 49.655C67.928 46.47 67.814 46.003 70.186 46.519L70.788 46.572C72.612 46.655 74.988 46.279 76.4 45.627C79.418 44.227 81.207 41.889 78.232 42.503C71.445 43.903 70.978 41.605 70.978 41.605C78.145 30.971 81.141 17.471 78.555 14.165C71.501 5.152 59.292 9.415 59.087 9.525L59.022 9.537C57.68 9.259 56.18 9.093 54.494 9.065C51.424 9.015 49.092 9.87 47.324 11.211C47.324 11.211 25.544 2.237 26.556 22.497C26.772 26.797 32.734 55.109 39.844 46.56C42.444 43.434 44.954 40.79 44.954 40.79C46.201 41.62 47.694 42.04 49.26 41.89L49.38 41.787C49.342 42.175 49.36 42.555 49.428 43.004C47.596 45.051 48.135 45.41 44.472 46.164C40.767 46.928 42.944 48.287 44.365 48.642C46.088 49.072 50.075 49.682 52.767 45.912L52.66 46.342C53.38 46.917 53.33 50.474 53.432 53.015C53.534 55.556 53.704 57.928 54.232 59.327C54.76 60.726 55.362 64.327 60.175 63.295C64.198 62.433 67.273 61.192 67.555 49.651" stroke="#231F20" stroke-width="5.046"/>
</g>
<path id="Vector_4" d="M78.233 42.503C71.445 43.903 70.978 41.605 70.978 41.605C78.145 30.97 81.141 17.47 78.556 14.165C71.502 5.153 59.292 9.415 59.088 9.525L59.022 9.537C57.68 9.259 56.18 9.093 54.492 9.065C51.422 9.015 49.092 9.87 47.322 11.211C47.322 11.211 25.54 2.238 26.552 22.497C26.767 26.797 32.729 55.109 39.84 46.561C42.44 43.435 44.94 40.791 44.94 40.791C46.187 41.621 47.68 42.041 49.246 41.891L49.368 41.788C49.33 42.176 49.348 42.556 49.418 43.005C47.586 45.052 48.124 45.411 44.462 46.165C40.756 46.929 42.932 48.288 44.354 48.643C46.077 49.073 50.064 49.683 52.756 45.913L52.649 46.343C53.367 46.918 53.871 50.083 53.786 52.951C53.701 55.819 53.646 57.789 54.211 59.328C54.776 60.867 55.341 64.328 60.155 63.296C64.178 62.434 66.262 60.2 66.552 56.474C66.758 53.824 67.222 54.216 67.252 51.848L67.626 50.728C68.056 47.138 67.694 45.978 70.173 46.518L70.775 46.571C72.599 46.654 74.985 46.278 76.388 45.626C79.405 44.226 81.195 41.888 78.22 42.502L78.233 42.503Z" fill="#141414"/>
<g id="Group">
<g id="Group_2">
<path id="Vector_5" d="M53.06 44.562C52.873 51.244 53.107 57.962 53.76 59.608C54.413 61.254 55.814 64.424 60.63 63.393C64.652 62.531 66.116 60.863 66.75 57.179C67.218 54.479 68.12 46.943 68.235 45.401M47.3 11.063C47.3 11.063 25.503 2.163 26.517 22.413C26.733 26.713 32.695 55.026 39.817 46.477C42.417 43.351 44.767 40.899 44.767 40.899M59.064 9.437C58.309 9.674 71.189 4.729 78.508 14.081C81.093 17.385 78.108 30.885 70.93 41.521" stroke="white" stroke-width="1.682" stroke-linecap="round" stroke-linejoin="round"/>
<path id="Vector_6" d="M70.93 41.52C70.93 41.52 71.397 43.82 78.185 42.418C81.159 41.804 79.369 44.142 76.353 45.543C73.877 46.693 68.327 46.986 68.236 45.399C68.002 41.303 71.156 42.547 70.93 41.521C70.724 40.597 69.313 39.689 68.38 37.427C67.565 35.452 57.207 20.307 71.253 22.557C71.768 22.451 67.59 9.197 54.445 8.982C41.3 8.767 41.745 25.144 41.745 25.144" stroke="white" stroke-width="1.682" stroke-linecap="round" stroke-linejoin="bevel"/>
</g>
<g id="Group_3">
<path id="Vector_7" d="M49.383 42.922C47.551 44.969 48.09 45.328 44.427 46.082C40.722 46.846 42.899 48.205 44.319 48.56C46.042 48.99 50.029 49.602 52.721 45.83C53.541 44.682 52.716 42.85 51.591 42.382C51.047 42.157 50.319 41.874 49.383 42.922Z" stroke="white" stroke-width="1.682" stroke-linejoin="round"/>
<path id="Vector_8" d="M49.262 42.886C49.078 41.683 49.658 40.251 50.279 38.576C51.213 36.063 53.369 33.548 51.644 25.576C50.359 19.634 41.74 24.339 41.734 25.146C41.728 25.953 42.134 29.23 41.59 33.046C40.893 38.026 44.76 42.24 49.212 41.809" stroke="white" stroke-width="1.682" stroke-linecap="round" stroke-linejoin="round"/>
</g>
</g>
<g id="Group_4">
<path id="Vector_9" d="M47.212 25.023C47.172 25.298 47.716 26.033 48.422 26.131C49.128 26.229 49.732 25.656 49.772 25.381C49.812 25.106 49.268 24.803 48.562 24.704C47.856 24.605 47.25 24.749 47.212 25.024V25.023Z" fill="white" stroke="white" stroke-width="0.561"/>
<path id="Vector_10" d="M68.725 24.462C68.763 24.737 68.221 25.462 67.515 25.57C66.809 25.678 66.205 25.095 66.165 24.82C66.125 24.545 66.67 24.242 67.377 24.143C68.084 24.044 68.687 24.188 68.727 24.463L68.725 24.462Z" fill="white" stroke="white" stroke-width="0.28"/>
</g>
<path id="Vector_11" d="M71.253 22.557C71.369 24.715 70.788 26.187 70.715 28.484C70.605 31.824 72.307 35.646 69.745 39.474" stroke="white" stroke-width="1.682" stroke-linecap="round" stroke-linejoin="round"/>
</g>
</svg>
