<svg width="25" height="21" viewBox="0 0 25 21" fill="none" xmlns="http://www.w3.org/2000/svg">
<circle cx="12.5" cy="10.5" r="10.5" fill="#D9D9D9"/>
<path fill-rule="evenodd" clip-rule="evenodd" d="M4.46875 4.03125H10.5625C10.6702 4.03125 10.7736 4.07405 10.8498 4.15024C10.9259 4.22642 10.9687 4.32976 10.9687 4.4375V10.5313C10.9687 10.639 10.9259 10.7423 10.8498 10.8185C10.7736 10.8947 10.6702 10.9375 10.5625 10.9375C10.4548 10.9375 10.3514 10.8947 10.2752 10.8185C10.199 10.7423 10.1562 10.639 10.1562 10.5313V5.41792L2.72458 12.8496C2.64757 12.9213 2.54571 12.9604 2.44047 12.9586C2.33522 12.9567 2.2348 12.9141 2.16037 12.8396C2.08594 12.7652 2.0433 12.6648 2.04145 12.5595C2.03959 12.4543 2.07865 12.3524 2.15041 12.2754L9.58208 4.84375H4.46875C4.361 4.84375 4.25767 4.80095 4.18149 4.72476C4.1053 4.64858 4.0625 4.54524 4.0625 4.4375C4.0625 4.32976 4.1053 4.22642 4.18149 4.15024C4.25767 4.07405 4.361 4.03125 4.46875 4.03125Z" fill="black"/>
<path fill-rule="evenodd" clip-rule="evenodd" d="M14.8437 15.5821V10.4688C14.8437 10.361 14.8009 10.2577 14.7248 10.1815C14.6486 10.1053 14.5452 10.0625 14.4375 10.0625C14.3298 10.0625 14.2264 10.1053 14.1502 10.1815C14.0741 10.2577 14.0312 10.361 14.0312 10.4688V16.5625C14.0312 16.6702 14.0741 16.7736 14.1502 16.8498C14.2264 16.9259 14.3298 16.9688 14.4375 16.9688H20.5312C20.639 16.9688 20.7423 16.9259 20.8185 16.8498C20.8947 16.7736 20.9375 16.6702 20.9375 16.5625C20.9375 16.4548 20.8947 16.3514 20.8185 16.2752C20.7423 16.1991 20.639 16.1563 20.5312 16.1563H15.4179L22.8496 8.72458C22.8895 8.68739 22.9215 8.64254 22.9437 8.59271C22.9659 8.54288 22.9779 8.48908 22.9788 8.43453C22.9798 8.37999 22.9697 8.3258 22.9493 8.27522C22.9289 8.22463 22.8985 8.17868 22.8599 8.14011C22.8213 8.10153 22.7754 8.07112 22.7248 8.05068C22.6742 8.03025 22.62 8.02022 22.5655 8.02118C22.5109 8.02214 22.4571 8.03408 22.4073 8.05629C22.3575 8.07849 22.3126 8.1105 22.2754 8.15042L14.8437 15.5821Z" fill="black"/>
</svg>
