<svg width="20" height="24" viewBox="0 0 20 24" fill="none" xmlns="http://www.w3.org/2000/svg">
<circle cx="11" cy="12" r="9" fill="#D9D9D9" fill-opacity="0.74"/>
<path fill-rule="evenodd" clip-rule="evenodd" d="M12.577 4.14641C12.6025 4.06553 12.6465 3.98971 12.7065 3.9233C12.7666 3.85688 12.8414 3.80116 12.9267 3.75933C13.012 3.71749 13.1062 3.69036 13.2039 3.67948C13.3016 3.6686 13.4009 3.67418 13.496 3.69591L18.276 4.78476C18.3712 4.80636 18.4605 4.84371 18.5388 4.89468C18.617 4.94564 18.6827 5.00921 18.732 5.08177C18.7813 5.15432 18.8133 5.23442 18.8262 5.31749C18.8391 5.40056 18.8325 5.48498 18.807 5.56591L17.526 9.62891C17.4721 9.78973 17.3459 9.92609 17.1748 10.0086C17.0037 10.0911 16.8013 10.1132 16.6112 10.07C16.4211 10.0269 16.2586 9.92198 16.1587 9.77793C16.0588 9.63388 16.0294 9.46222 16.077 9.29996L16.887 6.73126C14.696 7.87583 12.7945 9.37914 11.293 11.1538C11.2296 11.2288 11.1477 11.2912 11.0531 11.3367C10.9585 11.3822 10.8533 11.4096 10.745 11.4172C10.6367 11.4247 10.5277 11.4121 10.4256 11.3803C10.3236 11.3484 10.2309 11.2981 10.154 11.2329L7 8.55111L2.28 12.5631C2.13848 12.6792 1.949 12.7434 1.75235 12.7418C1.5557 12.7403 1.36763 12.6732 1.22864 12.5549C1.08965 12.4367 1.01086 12.2767 1.00924 12.1096C1.00763 11.9424 1.08331 11.7814 1.22 11.6613L6.47 7.19876C6.61062 7.07937 6.80125 7.01232 7 7.01232C7.19875 7.01232 7.38937 7.07937 7.53 7.19876L10.604 9.81081C12.1438 8.14403 14.0216 6.7246 16.149 5.61946L13.107 4.92671C13.0118 4.90501 12.9227 4.86759 12.8445 4.81659C12.7664 4.76559 12.7008 4.702 12.6516 4.62946C12.6024 4.55692 12.5705 4.47685 12.5577 4.39382C12.5449 4.31079 12.5514 4.22643 12.577 4.14556V4.14641Z" fill="black"/>
<path fill-rule="evenodd" clip-rule="evenodd" d="M8.05187 19.8536C8.02762 19.9345 7.9858 20.0103 7.9288 20.0767C7.87179 20.1431 7.80072 20.1988 7.71965 20.2407C7.63857 20.2825 7.54908 20.3096 7.45628 20.3205C7.36349 20.3314 7.2692 20.3258 7.17882 20.3041L2.63782 19.2152C2.54733 19.1936 2.4625 19.1563 2.38816 19.1053C2.31383 19.0544 2.25145 18.9908 2.2046 18.9182C2.15775 18.8457 2.12734 18.7656 2.11512 18.6825C2.1029 18.5994 2.1091 18.515 2.13337 18.4341L3.35032 14.3711C3.40156 14.2103 3.52137 14.0739 3.68394 13.9914C3.8465 13.9089 4.03879 13.8868 4.21937 13.93C4.39994 13.9731 4.55433 14.078 4.64926 14.2221C4.7442 14.3661 4.77207 14.5378 4.72687 14.7L3.95737 17.2687C6.0388 16.1242 7.84523 14.6209 9.27167 12.8462C9.33193 12.7712 9.4097 12.7088 9.49959 12.6633C9.58948 12.6178 9.68935 12.5904 9.79227 12.5828C9.89519 12.5753 9.9987 12.5879 10.0956 12.6197C10.1926 12.6516 10.2806 12.7019 10.3537 12.7671L13.35 15.4489L17.834 11.4369C17.9685 11.3208 18.1485 11.2566 18.3353 11.2582C18.5221 11.2597 18.7008 11.3268 18.8328 11.4451C18.9649 11.5633 19.0397 11.7233 19.0412 11.8904C19.0428 12.0576 18.9709 12.2186 18.841 12.3387L13.8535 16.8012C13.7199 16.9206 13.5388 16.9877 13.35 16.9877C13.1612 16.9877 12.9801 16.9206 12.8465 16.8012L9.92622 14.1892C8.46343 15.856 6.67946 17.2754 4.65847 18.3805L7.54837 19.0733C7.63876 19.095 7.72349 19.1324 7.79772 19.1834C7.87195 19.2344 7.93423 19.298 7.98098 19.3705C8.02774 19.4431 8.05807 19.5232 8.07023 19.6062C8.08239 19.6892 8.07615 19.7736 8.05187 19.8544V19.8536Z" fill="black"/>
</svg>
